<svg width="20" height="20" viewBox="0 0 20 20" fill="none" xmlns="http://www.w3.org/2000/svg" class="bgwUgX0ynb"><path fill-rule="evenodd" clip-rule="evenodd" d="M18.75 0h-6.877l-1.287 3.105.158.371c2.126.124 4.06 1.006 5.574 2.4L18.75 0zM8.005 0H1.25l2.398 5.885C5.205 4.42 7.218 3.52 9.423 3.467L8.005 0z" fill="#8394A1"></path><path fill-rule="evenodd" clip-rule="evenodd" d="M18.75 11.177C18.75 16.047 14.83 20 10 20s-8.75-3.953-8.75-8.823c0-4.87 3.92-8.822 8.75-8.822s8.75 3.944 8.75 8.822z" fill="url(#svg-id-0)"></path><path fill-rule="evenodd" clip-rule="evenodd" d="M15.25 11.177c0 2.92-2.354 5.294-5.25 5.294s-5.25-2.374-5.25-5.294c0-2.92 2.354-5.293 5.25-5.293s5.25 2.364 5.25 5.293z" fill="#fff"></path><path fill-rule="evenodd" clip-rule="evenodd" d="M10 6.113L8.89 9.448H5.214l3.045 1.959-1.934 3.511L10 12.968l3.553 1.95-1.838-3.511 3.15-1.959h-3.841L10 6.113z" fill="#9EAEB6"></path><defs><linearGradient id="svg-id-0" x1="6.847" y1="7.562" x2="15.59" y2="17.415" gradientUnits="userSpaceOnUse"><stop stop-color="#A9B6BD"></stop><stop offset="1" stop-color="#9FAFB7"></stop></linearGradient></defs></svg>