<svg width="59" height="12" fill="none" xmlns="http://www.w3.org/2000/svg" class="yipHJgWPAq"><g opacity="0.4"><path fill-rule="evenodd" clip-rule="evenodd" d="M12.286 11.998H22.92a1.08 1.08 0 001.08-1.08v-9.84a1.08 1.08 0 00-1.08-1.08H12.286v12zm6.514-6.8h2.4v1.6h-6.4v-1.6h2.4v-2.4h1.6v2.4zm-1.6 1.84v2.16h1.6V8.097c0-.765-.81-1.057-1.6-1.057zM1.08-.002h10.634v12H1.08A1.08 1.08 0 010 10.918v-9.84c0-.596.483-1.08 1.08-1.08zm6.086 6.208L4.987 3.058H3.18v5.88h1.893V5.792l2.18 3.146H9.06v-5.88H7.166v3.148z" fill="#121212"></path><path d="M37.09 9.38H27v1.49h10.09V9.38zM32.828.898h-1.564v2.429c0 .751-.438 1.435-1.115 1.743-.8.364-1.742.546-2.883.558l.016 1.564c1.362-.013 2.512-.24 3.515-.697a3.44 3.44 0 001.249-.968c.33.408.754.744 1.248.968 1.003.456 2.153.684 3.516.697l.015-1.564c-1.14-.01-2.083-.193-2.883-.558a1.917 1.917 0 01-1.114-1.743V.897zm15.539 8.495v1.476h-10.09V9.393h4.172V7.97h1.708v1.422h4.21zm-8.085-3.296V4.852h7.628V3.473h-8.096a1.08 1.08 0 00-1.08 1.08v1.868c0 .596.484 1.08 1.08 1.08h8.096V6.097h-7.628zM47.91.898h-9.175V2.3h9.175V.898zM52.399.77c-.864 0-1.552.28-2.064.838-.514.558-.77 1.354-.77 2.388v3.728c0 1.027.256 1.816.77 2.37.513.555 1.2.832 2.064.832.863 0 1.543-.277 2.064-.832.52-.554.782-1.343.782-2.37V3.996c0-1.034-.26-1.83-.782-2.388-.522-.558-1.21-.838-2.064-.838zm1.282 6.953c0 .595-.114 1.033-.342 1.313-.228.281-.542.421-.94.421-.398 0-.723-.14-.947-.42-.224-.281-.335-.72-.335-1.314V3.995c0-.586.111-1.022.336-1.307.224-.286.54-.429.946-.429.406 0 .712.143.94.429.228.285.342.72.342 1.307v3.728zM57.187.721v3.96h-1.52v1.552h1.52v5.046H58.8V.72h-1.613z" fill="#000"></path></g></svg>