<svg xmlns="http://www.w3.org/2000/svg" width="18" height="15" viewBox="0 0 18 15" class="Aiz2_tPtAj"><g fill="none" fill-rule="evenodd"><path fill="currentColor" d="M7.527 14a2.263 2.263 0 01-1.88-1h3.76c-.404.606-1.104 1-1.88 1zm4.629-2H1.664l.71-1.382V6c0-2.757 2.308-5 5.144-5 2.484 0 4.562 1.72 5.039 4h1.04c-.492-2.833-3.027-5-6.08-5-3.402 0-6.17 2.692-6.17 6v4.382L0 13h4.49c.489 1.186 1.685 2 3.036 2 1.35 0 2.548-.814 3.036-2h1.593v-1z"></path><path fill="currentColor" d="M17.813 9h-2.571V6.5h-1.543V9h-2.572v1.5H13.7V13h1.543v-2.5h2.571z"></path></g></svg>