<svg width="16" height="16" viewBox="0 0 16 16" fill="none" xmlns="http://www.w3.org/2000/svg">
<circle cx="8" cy="8" r="8" fill="#00C751"/>
<path fill-rule="evenodd" clip-rule="evenodd" d="M10.0504 3.76972C10.0504 3.7273 10.0851 3.69238 10.1282 3.69238H11.5465C11.5891 3.69238 11.624 3.7273 11.624 3.76972V7.3404H13.1532C13.1958 7.3404 13.231 7.37544 13.231 7.41787V8.57202C13.231 8.61363 13.1958 8.64849 13.1532 8.64849H11.624V12.2304C11.624 12.2728 11.5891 12.3078 11.5465 12.3078H10.2781C10.2353 12.3078 10.1796 12.2799 10.154 12.2457L5.64174 6.22747V12.2304C5.64174 12.2728 5.60627 12.3078 5.56348 12.3078H4.14585C4.10337 12.3078 4.06772 12.2728 4.06772 12.2304V8.64849H2.54C2.49721 8.64849 2.46172 8.61363 2.46172 8.57202V7.41787C2.46172 7.37544 2.49721 7.3404 2.54 7.3404H4.06772V3.76972C4.06772 3.7273 4.10337 3.69238 4.14585 3.69238H5.427C5.46982 3.69238 5.52562 3.72013 5.5517 3.75445L10.0504 9.75132V3.76972Z" fill="white"/>
</svg>
