<svg xmlns="http://www.w3.org/2000/svg" width="15" height="13" viewBox="0 0 15 13" class="YFxPJymx2c"><path fill="currentColor" fill-rule="evenodd" d="M7.442 13L1.13 6.683C-.376 5.153-.376 2.67 1.128 1.144A3.79 3.79 0 013.848 0c1.03 0 1.996.407 2.723 1.145l-.617.608A2.94 2.94 0 003.85.866c-.795 0-1.543.314-2.104.886a3.09 3.09 0 000 4.321l5.697 5.702 5.893-5.894c1.014-1.17.948-2.993-.17-4.128A2.93 2.93 0 0011.06.866c-.797 0-1.545.314-2.107.886L6.3 4.417a1.256 1.256 0 00-.003 1.801 1.33 1.33 0 001.856 0l2.584-2.582.611.612-2.585 2.585a2.2 2.2 0 01-3.074.002 2.12 2.12 0 01-.638-1.516c0-.572.227-1.11.638-1.515l2.65-2.66A3.8 3.8 0 0111.06 0a3.8 3.8 0 012.721 1.146c1.433 1.455 1.515 3.794.186 5.325z"></path></svg>