<svg xmlns="http://www.w3.org/2000/svg" width="46" height="8" viewBox="0 0 46 8" class="yipHJgWPAq"><path fill="currentColor" fill-rule="evenodd" d="M6.14 0h3.178v8H6.129L3.178 3.962V8H0V0h3.188L6.14 4.035V0zm37.29 5.008L46 8h-3.654L40.45 5.501V8h-3.18V0h3.971c2.301 0 4.046.661 4.046 2.722 0 1.227-.729 1.99-1.857 2.286zm-1.562-1.63a.663.663 0 00.273-.563c0-.249-.084-.443-.26-.588-.178-.143-.543-.215-.865-.215h-.668v1.576h.681c.296 0 .653-.07.84-.21zM29.523 0h6.444v2.083h-3.296v.94h3.036v1.968h-3.036v.925h3.396V8h-6.544V0zM16.969 0l3.346 8H16.78l-.31-1.046h-2.626L13.535 8H10l3.345-8h3.624zm-2.603 5.105h1.582l-.747-2.639h-.088l-.747 2.639zM25.375 0h3.466l-3.576 8h-3.002l-3.575-8h3.466l1.566 4.822h.088L25.375 0z"></path></svg>