<svg width="41" height="16" viewBox="0 0 41 16" fill="none" xmlns="http://www.w3.org/2000/svg">
<path d="M13.6667 7.83333C13.6667 9.18484 13.2659 10.506 12.515 11.6297C11.7642 12.7535 10.697 13.6293 9.44834 14.1465C8.19971 14.6637 6.82576 14.799 5.50022 14.5354C4.17468 14.2717 2.9571 13.6209 2.00144 12.6652C1.04578 11.7096 0.39497 10.492 0.131304 9.16645C-0.132361 7.84091 0.00295882 6.46696 0.520158 5.21833C1.03736 3.9697 1.91321 2.90248 3.03694 2.15162C4.16068 1.40077 5.48183 1 6.83334 1C8.64565 1 10.3837 1.71994 11.6652 3.00144C12.9467 4.28294 13.6667 6.02102 13.6667 7.83333ZM7.97621 4.62167V8.05712L5.58455 4.62167H3.62167V11.0535H5.68875V7.60783L8.08042 11.045H10.0501V4.62167H7.97621Z" fill="black"/>
<path d="M38.1623 4.24238L36.2734 8.54636L34.1367 4.24238H32.4939L35.5198 10.2136L34.2725 13.0116H35.8678L39.7576 4.25087L38.1623 4.24238ZM31.4439 10.8978H29.8826V10.2764C29.3146 10.7743 28.5825 11.0441 27.8274 11.0337C25.9605 11.0337 24.4993 9.50562 24.4993 7.57011C24.4993 5.63459 25.9588 4.10655 27.8274 4.10655C28.5822 4.09569 29.3144 4.36484 29.8826 4.86208V4.24238H31.4439V10.8978ZM30.0659 7.5786C30.0659 6.32391 29.1902 5.37143 28.0293 5.37143C26.8685 5.37143 25.9928 6.32391 25.9928 7.5786C25.9928 8.83329 26.8668 9.78576 28.0293 9.78576C29.1919 9.78576 30.0659 8.8248 30.0659 7.5786ZM16.7778 13.0116H18.4071V10.3325C18.9645 10.7962 19.6695 11.0449 20.3944 11.0337C22.2612 11.0337 23.7242 9.50562 23.7242 7.57011C23.7242 5.63459 22.2629 4.10655 20.3944 4.10655C19.6375 4.09295 18.9029 4.36237 18.3341 4.86208V4.24238H16.7727L16.7778 13.0116ZM20.2009 5.37143C21.3618 5.37143 22.2375 6.32391 22.2375 7.5786C22.2375 8.83329 21.3618 9.78576 20.2009 9.78576C19.0401 9.78576 18.1644 8.83329 18.1644 7.5786C18.1644 6.32391 19.0299 5.37143 20.2009 5.37143Z" fill="black"/>
</svg>
