<svg xmlns="http://www.w3.org/2000/svg" width="16" height="16" fill="none" viewBox="0 0 16 16" class="tJ3KACAQhh"><path stroke="currentColor" stroke-width="0.85" d="M12.24 11.6a1.201 1.201 0 00-2.4 0 1.2 1.2 0 001.2 1.2c.666-.004 1.2-.54 1.2-1.2zm-6.08 0a1.2 1.2 0 00-1.2-1.2c-.663 0-1.197.537-1.2 1.2a1.203 1.203 0 001.2 1.2 1.203 1.203 0 001.2-1.2z" clip-rule="evenodd"></path><path stroke="currentColor" stroke-linecap="square" stroke-width="0.85" d="M7.667 4a.333.333 0 00-.334-.333h-5A.333.333 0 002 4v4.333m1.667 3.334H2.333A.333.333 0 012 11.333v-3m0 0h7.333m0-.006v-2.66c0-.184.15-.334.334-.334h2.794c.126 0 .241.072.298.185l1.206 2.412a.33.33 0 01.035.149v3.254c0 .184-.15.334-.333.334h-1.334m-6 0h3.334"></path></svg>