<svg width="51" height="18" viewBox="0 0 51 18" fill="none" xmlns="http://www.w3.org/2000/svg" class="Wd_QcgN_3g"><path fill-rule="evenodd" clip-rule="evenodd" d="M8.52 8.898H6.89a.139.139 0 00-.14.139v2.33H5.09v-2.33a.139.139 0 00-.139-.139h-1.63a.139.139 0 00-.138.139v2.33H.229a.139.139 0 00-.14.138v1.364a.14.14 0 00.14.138h11.383a.139.139 0 00.139-.138v-1.364a.139.139 0 00-.139-.139H8.66v-2.33a.14.14 0 00-.14-.138z" fill="CurrentColor"></path><path fill-rule="evenodd" clip-rule="evenodd" d="M1.927 9.13L5.92 6.053 9.914 9.13a.14.14 0 00.196-.027l.905-1.204a.139.139 0 00-.027-.192L7.322 4.884a1.045 1.045 0 01-.409-.829V2.713a.139.139 0 00-.138-.139H5.066a.138.138 0 00-.139.139v1.342c0 .325-.15.63-.409.829L.853 7.707a.138.138 0 00-.027.192l.905 1.204a.14.14 0 00.196.027zm18.658-6.937V8.64a.14.14 0 00.14.139h1.642a.139.139 0 00.139-.139V2.193a.138.138 0 00-.139-.138h-1.643a.139.139 0 00-.139.138zm-5.747 4.68h1.795V3.922h-1.795v2.951zm4.508.001h-.954V3.922h.954a.14.14 0 00.14-.138v-1.31a.139.139 0 00-.14-.138h-7.27a.14.14 0 00-.139.138v1.31a.14.14 0 00.14.138h.995v2.952h-.995a.14.14 0 00-.14.138v1.31a.14.14 0 00.14.138h7.27a.138.138 0 00.138-.138v-1.31a.139.139 0 00-.139-.138zm.798 5.52c0 .859-.736 1.558-1.64 1.558-.904 0-1.64-.699-1.64-1.558 0-.86.736-1.558 1.64-1.558.904 0 1.64.699 1.64 1.558zm-1.64-3.289c-1.917 0-3.477 1.476-3.477 3.29 0 1.813 1.56 3.289 3.477 3.289 1.917 0 3.477-1.476 3.477-3.29 0-1.813-1.56-3.289-3.477-3.289z" fill="CurrentColor"></path><path d="M50.14.516a.65.65 0 01.65.648v14.147a.65.65 0 01-.69.648l-17.394-1.054-3.973 2.927a.13.13 0 01-.208-.105v-3.076l-3.002-.18a.65.65 0 01-.61-.648V2.653a.65.65 0 01.61-.647L50.1.518a.53.53 0 01.04-.002zM28.525 4.613v7.08h4.21v-1.49h-2.7v-5.59h-1.51zm5.486 0v7.08h1.51v-7.08h-1.51zm2.567 0l1.944 7.08h1.82l1.943-7.08h-1.592L39.432 9.9 38.17 4.613h-1.593zm6.59 0v7.08h4.443V10.2H44.68V8.85h2.452V7.358H44.68V6.104h2.932v-1.49H43.17z" fill="CurrentColor"></path></svg>